
<svg width="210mm" height="297mm" version="1.1" viewBox="0 0 210 297" xmlns="http://www.w3.org/2000/svg" xmlns:cc="http://creativecommons.org/ns#"
    xmlns:dc="http://purl.org/dc/elements/1.1/" xmlns:rdf="http://www.w3.org/1999/02/22-rdf-syntax-ns#">

    <path d="m39.31 117.46v84.289l17.518 4.6606-1.1217-31.794 36.725 43.156 19.827 4.3874 11.339-8.6934-0.37798-23.057 9.0714 17.765 9.8274-7.1816-7.4216-17.365 18.005 11.696 15.497-10.583-1.5119-82.021-61.61-18.899zm127.38-14.741-13.901 8.8118-46.515-15.681-11.597 5.819 48.078 17.113-10.448 7.0123-49.915-17.734-14.011 7.0786 53.831 17.43-11.84 7.9466-18.577-5.235 0.61893 34.148-34.005-45.773-19.096-6.196m71.06 23.057 0.75595 81.265m11.085-89.212 1.0107 37.051 8.6934-44.223"
        style="fill:none;stroke-width:.26458px;stroke:#000" />
    <path d="m142.12 200.99-10.583-25.324 11.217-56.886m-10.461 89.392-9.0714-17.765 0.37798 23.057" style="fill:none;stroke-width:.26458px;stroke:#000"
    />
    <path d="m152.7 112.17v83.155" style="fill:none;stroke-width:.26458px;stroke:#000" />
    <path d="m131.54 207.42-8.6934-4.5357" style="fill:none;stroke-width:.26458px;stroke:#000" />
    <path d="m91.792 135.28-11.283-8.3721-21.167-2.2679" style="fill:none;stroke-width:.26458px;stroke:#000" />
    <path d="m57.074 204.77 13.607-12.851" style="fill:none;stroke-width:.26458px;stroke:#000" />
    <path d="m82.39 108.06 0.76502 11.667" style="fill:none;stroke-width:.26458px;stroke:#000" />
    <path d="m106.27 95.851-0.0605 9.8926" style="fill:none;stroke-width:.26458px;stroke:#000" />
    <path transform="scale(.26458)" d="m382.88 829.44-32.603-7.2443-68.825-80.754c-37.854-44.415-69.272-81.421-69.819-82.235-0.54657-0.81445-1.2997-1.1748-1.6737-0.80086-0.37397 0.37396 0.28817 27.248 1.4714 59.719 1.1832 32.472 1.9015 59.289 1.5962 59.594-0.30536 0.30535-14.663-3.1867-31.906-7.76l-31.351-8.3152-0.3634-158.23c-0.29031-126.4-3e-3 -158.09 1.4286-157.55 0.98558 0.37165 16.915 5.5578 35.399 11.525l33.607 10.849 64.965 87.422c35.73 48.082 65.14 86.52 65.355 85.416s-0.1811-30.292-0.88027-64.863-1.1965-62.96-1.1052-63.085c0.0913-0.1251 15.357 4.0417 33.923 9.2596l33.757 9.4871 0.893 101.45c0.49114 55.8 1.2882 124.44 1.7712 152.53 0.73514 42.749 0.55934 51.052-1.0788 50.95-1.0764-0.067-16.629-3.3818-34.56-7.3662z"
        style="fill:#0ff;stroke-width:1.4286" />
    <path transform="scale(.26458)" d="m465.76 596.57c-0.5429-17.875-1.4035-46.878-1.9126-64.45l-0.92548-31.95-147.8-47.938-1.025-19.895c-0.56377-10.942-0.65878-20.261-0.21112-20.709 0.70765-0.70765 177.7 61.35 181.68 63.699 0.98455 0.5821-3.7044 27.13-13.656 77.315l-15.155 76.429z"
        style="fill:#0ff;stroke-width:1.4286" />
    <path transform="scale(.26458)" d="m543.35 714.83-32.143-20.822-6.0198-13.897c-3.3109-7.6435-6.043-15.215-6.0714-16.826-0.0284-1.6107 9.3179-50.468 20.77-108.57 16.666-84.56 20.443-105.88 18.929-106.84-1.0409-0.65569-32.107-11.939-69.035-25.075l-67.143-23.883 0.5063-17.068c0.27846-9.3875 0.59989-17.169 0.71428-17.293 0.42419-0.45813 170.25 57.009 171.29 57.962 0.59277 0.54441 0.9142 71.222 0.71428 157.06l-0.3635 156.07z"
        style="fill:#0ff;stroke-width:1.4286" />
    <path transform="scale(.26458)" d="m215.66 766.71c-0.84821-5.6168-4.0574-101.37-3.4188-102 0.23938-0.23938 12.192 13.392 26.562 30.291l26.127 30.726-16.15 15.249c-8.8823 8.387-19.806 18.684-24.274 22.881l-8.1248 7.6322z"
        style="fill:#000080;stroke-width:1.4286" />
    <path transform="scale(.26458)" d="m285.82 442.88-23.952-8.11 23.606-11.777c12.983-6.4776 23.865-11.777 24.181-11.777 0.31621 0 0.96423 5.625 1.44 12.5s1.182 15.875 1.5693 20c0.51464 5.4814 0.22019 7.4697-1.094 7.3874-0.98901-0.0619-12.577-3.7621-25.75-8.2226z"
        style="fill:#000080;stroke-width:1.4286" />
    <path transform="scale(.26458)" d="m381.92 391.68c-9.8214-3.5672-18.325-6.9175-18.897-7.4452-0.57207-0.52766 7.6244-5.2776 18.214-10.555l19.254-9.596v17.136c0 9.4249-0.16071 17.093-0.35714 17.041-0.19643-0.0522-8.3929-3.0136-18.214-6.5808z"
        style="fill:#000080;stroke-width:1.4286" />
    <path transform="scale(.26458)" d="m419.87 688.79c-0.53033-82.343-1.2482-151.32-1.5953-153.29-0.57009-3.2263 1.3983-4.912 20.37-17.444 11.55-7.6298 21.251-13.622 21.558-13.315 0.30634 0.30634 1.4257 30.89 2.4874 67.964 1.7356 60.603 2.311 70.44 4.0002 68.391 0.26981-0.32739 7.0692-34.345 15.11-75.595s15.25-77.978 16.02-81.618c1.3762-6.4996 1.7351-6.8406 20.03-19.027 10.246-6.825 18.858-12.18 19.139-11.899s-8.8567 47.887-20.305 105.79l-20.816 105.28 5.987 14.664c3.2929 8.0654 12.25 29.486 19.905 47.602l13.918 32.937-16.468 12.063c-9.0573 6.6344-17.14 12.24-17.962 12.457-0.8218 0.2171-8.2097-13.085-16.418-29.561-21.15-42.455-19.941-41.723-20.253-12.263-0.14124 13.357-0.13637 25.25 0.0109 26.429 0.14722 1.1786 0.61646 10.179 1.0428 20l0.77509 17.857-20.762 15.714c-11.419 8.6429-21.673 15.907-22.786 16.143-1.7305 0.36625-2.163-21.242-2.9876-149.29z"
        style="fill:#000080;stroke-width:1.4286" />
    <path transform="scale(.26458)" d="m577.63 579.34v-156.4l25.129-15.972c13.821-8.7844 25.336-15.762 25.589-15.505 0.25303 0.2565 1.4672 56.395 2.6982 124.75 1.231 68.357 2.599 137.14 3.04 152.86l0.80189 28.571-27.376 18.571c-15.057 10.214-27.94 18.786-28.629 19.048-0.7132 0.2711-1.2527-66.883-1.2527-155.92z"
        style="fill:#000080;stroke-width:1.4286" />
    <path d="m80.509 126.91 11.902 42.52" style="fill:#000080;stroke-width:.26458px;stroke:#000" />
    <path transform="scale(.26458)" d="m327.1 556.79c-10.794-38.552-19.429-70.65-19.188-71.328 0.24058-0.6784 8.8641 4.9758 19.163 12.565l18.726 13.798 1.0386 56.954c0.5712 31.324 0.77913 57.213 0.46205 57.53-0.31708 0.31709-9.4079-30.966-20.202-69.518z"
        style="fill:#000080;stroke-width:1.4286" />
    <path transform="scale(.26458)" d="m285.36 552.33c-32.267-43.434-57.975-79.126-57.129-79.317 0.84655-0.19018 17.872 1.4329 37.834 3.6068 27.459 2.9904 36.58 4.4656 37.465 6.06 1.7493 3.1523 41.386 145.96 40.909 147.39-0.22617 0.67849-26.812-34.303-59.079-77.737z"
        style="fill:#80e5ff;stroke-width:1.4286" />
    <path transform="scale(.26458)" d="m381.86 520c-20.84-5.9411-35.509-10.902-38.571-13.044-2.7178-1.9013-12.399-9.0598-21.515-15.908l-16.573-12.451-40.387-4.3389c-28.131-3.0222-41.093-4.9667-42.713-6.4077-1.2789-1.1378-17.692-7.0509-36.474-13.14l-34.149-11.071 7.0061-3.5111c5.6398-2.8264 128.15-65.392 220.82-112.77l18.095-9.2515 112.62 34.544c61.941 18.999 113.44 35.003 114.44 35.564 1.1521 0.64459-7.0724 6.6405-22.358 16.299-13.299 8.4038-24.563 15.28-25.031 15.28-0.46769 0-40.228-13.273-88.357-29.496l-87.506-29.496-20.177 10.278c-11.097 5.6531-21.263 11.072-22.59 12.043-2.0366 1.4892 10.704 6.4211 81.605 31.588 46.21 16.403 86.869 30.915 90.354 32.249l6.3348 2.4249-17.763 11.909c-9.7699 6.5501-19.049 11.783-20.621 11.628-1.5714-0.15492-44.264-15.016-94.873-33.025l-92.016-32.743-27.984 14.048c-16.858 8.4621-27.132 14.373-25.842 14.867 1.1786 0.45086 29.143 9.5481 62.143 20.216 33 10.668 77.915 25.202 99.811 32.298l39.811 12.901-21.24 14.154c-11.682 7.7846-21.561 14.108-21.954 14.053-0.39286-0.0556-15.848-4.4153-34.344-9.6883z"
        style="fill:#d5f6ff;stroke-width:1.4286" />
    <path transform="scale(.26458)" d="m380.8 828.5c-16.724-3.7447-30.925-7.3969-31.558-8.1161-0.63304-0.71914-21.356-25.093-46.051-54.165s-55.414-65.232-68.264-80.357-24.022-27.5-24.826-27.5c-0.97149 0-1.1549 6.5971-0.54609 19.643 1.9053 40.828 2.7926 98.929 1.5108 98.929-1.1848 0-52.181-13.282-58.073-15.125-2.3611-0.73856-2.5-9.5187-2.5-158 0-149.04 0.13001-157.18 2.5-156.52 1.375 0.37963 17.012 5.3701 34.748 11.09l32.248 10.4 4.5774 6.5766c12.982 18.653 123.97 165.85 125.05 165.85 0.73619 4e-3 0.82526-26.765 0.21219-63.772-0.88285-53.292-0.73912-63.672 0.87407-63.123 1.0619 0.36111 15.848 4.4721 32.858 9.1356l30.927 8.4791 0.84255 20.716c0.4634 11.394 1.2512 79.698 1.7507 151.79l0.90816 131.07-3.3919-0.0982c-1.8655-0.054-17.075-3.162-33.799-6.9068z"
        style="fill:#5df;stroke-width:1.4286" />
    <path transform="scale(.26458)" d="m542.66 713.72-31.362-20.357-5.9297-14.623c-5.5532-13.694-5.8447-15.1-4.5914-22.143 0.73605-4.1362 8.3296-43.52 16.874-87.52 18.46-95.056 21.405-111.18 21.405-117.19 0-5.2439 5.7155-2.8749-85.714-35.527l-49.286-17.601 0.0488-15.841c0.0268-8.7128 0.41659-16.209 0.86611-16.659 0.63183-0.63183 111.65 36.32 161.59 53.781l8.2143 2.8725v155.58c0 85.571-0.16827 155.58-0.37395 155.58-0.20567 0-14.487-9.1607-31.736-20.357z"
        style="fill:#5df;stroke-width:1.4286" />
    <path transform="scale(.26458)" d="m467.28 616.93c-0.43495-1.1786-1.4783-27.805-2.3185-59.17s-2.0297-57.445-2.6433-57.955c-0.61354-0.51032-33.698-11.453-73.52-24.317-61.258-19.788-72.526-23.842-73.195-26.331-0.94296-3.5108-1.111-36.513-0.18589-36.513 2.9641 0 176.76 61.312 178.55 62.989 1.6263 1.5241-3.022 28.728-16.21 94.868-5.3266 26.714-10.041 47.607-10.476 46.429z"
        style="fill:#5df;stroke-width:1.4286" />
    <path transform="scale(.26458)" d="m422.75 834.58c-1.6165-4.2124-3.8025-300.79-2.231-302.68 3.3263-4.0079 37.3-25.345 38.418-24.129 0.6601 0.7181 1.9384 26.698 2.8406 57.734 1.7327 59.601 2.6813 75.714 4.4574 75.714 1.4638 0 0.6933 3.6173 17.786-83.504 10.672-54.392 15.846-77.888 17.582-79.835 2.682-3.0098 33.467-23.987 34.17-23.284 0.39912 0.39912-11.451 61.984-32.164 167.16l-8.4052 42.678 15.305 36.608c8.4175 20.134 17.34 41.379 19.827 47.21 2.4874 5.8312 4.0222 11.056 3.4106 11.611-0.61163 0.55509-8.1133 6.0169-16.67 12.137-13.647 9.761-15.765 10.846-17.238 8.8313-0.92372-1.2632-8.2924-15.192-16.375-30.954-8.0825-15.761-15.539-28.657-16.569-28.657-2.9248 0-4.0383 18.329-2.9392 48.381 0.53544 14.64 1.3203 28.644 1.744 31.118 0.74244 4.3351 0.15372 4.9626-16.147 17.21-26.138 19.639-25.748 19.396-26.801 16.65z"
        style="fill:#08a;stroke-width:1.4286" />
    <path transform="scale(.26458)" d="m578.58 634.37c-0.52102-54.77-0.92765-124.65-0.90363-155.3l0.0437-55.714 49.196-30.65 0.96297 16.753c0.52964 9.2144 1.9809 74.289 3.225 144.61 1.2442 70.321 2.5806 131.2 2.97 135.29l0.70792 7.4312-26.076 17.692c-14.342 9.7306-26.774 18.092-27.627 18.58-1.1062 0.63296-1.8235-27.696-2.4989-98.695z"
        style="fill:#08a;stroke-width:1.4286" />
    <path transform="scale(.26458)" d="m337.16 589.7c-14.673-51.434-28.259-101.66-27.662-102.25 0.31899-0.31899 8.323 4.9593 17.787 11.73l17.207 12.31 0.94705 20.223c0.52087 11.123 0.7454 35.291 0.49895 53.706l-0.4481 33.483z"
        style="fill:#08a;stroke-width:1.4286" />
    <path transform="scale(.26458)" d="m285.78 442.25-22.561-7.4654 22.366-11.147c12.301-6.1307 22.761-10.752 23.244-10.269 0.98628 0.98627 2.8256 19.27 2.9808 29.63 0.0681 4.5476-0.48734 6.7743-1.6841 6.7511-0.98214-0.019-11.938-3.394-24.346-7.5z"
        style="fill:#08a;stroke-width:1.4286" />
    <path transform="scale(.26458)" d="m381.92 391.01c-8.25-3.1439-15.507-6.2085-16.126-6.8101-0.94781-0.92095 31.203-18.699 33.816-18.699 1.1518 0 1.1336 16.328-0.0276 24.801-0.49966 3.6454-1.3032 6.5823-1.7857 6.5266-0.48248-0.0558-7.6272-2.6737-15.877-5.8176z"
        style="fill:#08a;stroke-width:1.4286" />
    <path transform="scale(.26458)" d="m215.73 755.82c-0.49252-7.6396-1.3323-30.926-1.8661-51.747l-0.97065-37.857 13.613 15.714c25.522 29.46 36.823 42.856 36.83 43.656 7e-3 0.78744-31.554 30.876-41.567 39.627l-5.1449 4.4969z"
        style="fill:#006680;stroke-width:1.4286" />
    <path transform="scale(.26458)" d="m482.07 774.79c-6.575-3.4235-12.534-6.8037-13.241-7.5115-0.70781-0.7078-1.1068-9.9139-0.88662-20.458l0.4003-19.171 13.299 26.225c7.3143 14.424 13.093 26.431 12.841 26.683-0.25166 0.25166-5.8371-2.3435-12.412-5.767z"
        style="fill:#045;stroke-width:1.4286" />
    <path transform="scale(.26458)" d="m339.28 595.76c-7.5844-26.684-26.934-97.66-28.066-102.95l-1.035-4.8346 15.094 10.368c8.3015 5.7024 16.098 11.478 17.326 12.835 1.934 2.137 2.2306 9.0259 2.2171 51.478-9e-3 26.956-0.19057 49.186-0.40437 49.4s-2.5229-7.12-5.1314-16.297z"
        style="fill:#08a;stroke-width:1.4286" />
    <path transform="scale(.26458)" d="m338.53 593.72c-16.859-60.433-28.168-102.83-27.757-104.06 0.47722-1.4316 28.969 17.923 32.31 21.948 1.4028 1.6902 1.8212 13.503 1.8099 51.091-8e-3 26.891-0.25436 49.132-0.5472 49.425s-2.9095-7.9884-5.8148-18.403z"
        style="fill:#0cf;stroke-width:1.4286" />
    <path transform="scale(.26458)" d="m300.06 571.01c-23.118-30.921-48.485-65.22-56.371-76.22-13.61-18.984-14.158-20.024-10.796-20.463 6.8104-0.89097 65.519 6.1572 68.95 8.2776 1.0004 0.61827 5.6325 14.542 10.294 30.941 15.251 53.657 31.141 112.5 30.542 113.1-0.32274 0.32273-19.502-24.712-42.62-55.633z"
        style="fill:#08a;stroke-width:1.4286" />
    <path transform="scale(.26458)" d="m337.2 587.29c-15.089-54.087-25.634-94.764-24.786-95.611 0.84491-0.84491 18.198 10.286 28.079 18.012l3.5714 2.7923 0.50343 46.511c0.32096 29.652-2e-3 46.511-0.89155 46.511-0.76725 0-3.6816-8.1964-6.4763-18.214z"
        style="fill:#00aad4;stroke-width:1.4286" />
</svg>